0
SECTION
2
HEADER
9
$INSUNITS
70
4
9
$ACADVER
1
AC1014
9
$HANDSEED
5
FFFF
0
ENDSEC
0
SECTION
2
TABLES
0
TABLE
2
VPORT
5
8
100
AcDbSymbolTable
0
ENDTAB
0
TABLE
2
LTYPE
5
5
100
AcDbSymbolTable
0
LTYPE
5
14
100
AcDbSymbolTableRecord
100
AcDbLinetypeTableRecord
2
BYBLOCK
70
0
0
LTYPE
5
15
100
AcDbSymbolTableRecord
100
AcDbLinetypeTableRecord
2
BYLAYER
70
0
0
LTYPE
5
16
100
AcDbSymbolTableRecord
100
AcDbLinetypeTableRecord
2
DASHED
70
0
3
Dashed __ __ __ __ __ __ __ __ __ __ __ __ __ _
72
65
73
2
40
0.75
49
0.5
74
0
49
-0.25
74
0
0
ENDTAB
0
TABLE
2
LAYER
5
2
100
AcDbSymbolTable
70
3
0
LAYER
5
50
100
AcDbSymbolTableRecord
100
AcDbLayerTableRecord
2
1
70
0
62
7
6
DASHED
0
LAYER
5
51
100
AcDbSymbolTableRecord
100
AcDbLayerTableRecord
2
0
70
0
62
7
6
CONTINUOUS
0
ENDTAB
0
TABLE
2
STYLE
5
3
100
AcDbSymbolTable
70
1
0
STYLE
5
11
100
AcDbSymbolTableRecord
100
AcDbTextStyleTableRecord
2
STANDARD
70
0
0
ENDTAB
0
TABLE
2
VIEW
5
6
100
AcDbSymbolTable
70
0
0
ENDTAB
0
TABLE
2
UCS
5
7
100
AcDbSymbolTable
70
0
0
ENDTAB
0
TABLE
2
APPID
5
9
100
AcDbSymbolTable
70
2
0
APPID
5
12
100
AcDbSymbolTableRecord
100
AcDbRegAppTableRecord
2
ACAD
70
0
0
ENDTAB
0
TABLE
2
DIMSTYLE
5
A
100
AcDbSymbolTable
70
1
0
ENDTAB
0
TABLE
2
BLOCK_RECORD
5
1
100
AcDbSymbolTable
70
1
0
BLOCK_RECORD
5
1F
100
AcDbSymbolTableRecord
100
AcDbBlockTableRecord
2
*MODEL_SPACE
0
BLOCK_RECORD
5
1B
100
AcDbSymbolTableRecord
100
AcDbBlockTableRecord
2
*PAPER_SPACE
0
ENDTAB
0
ENDSEC
0
SECTION
2
BLOCKS
0
BLOCK
5
20
100
AcDbEntity
100
AcDbBlockBegin
2
*MODEL_SPACE
0
ENDBLK
5
21
100
AcDbEntity
100
AcDbBlockEnd
0
BLOCK
5
1C
100
AcDbEntity
100
AcDbBlockBegin
2
*PAPER_SPACE
0
ENDBLK
5
1D
100
AcDbEntity
100
AcDbBlockEnd
0
ENDSEC
0
SECTION
2
ENTITIES
0
POINT
5
100
100
AcDbEntity
8
0
100
AcDbPoint
10
38.126739736269194
20
-51.020806685307804
30
2.7755575615628914e-16
0
LWPOLYLINE
5
101
100
AcDbEntity
8
0
100
AcDbPolyline
90
24
70
1
43
0.0
10
140.06558321200001
20
-34.478043077000002
10
140.06558321200001
20
19.483995921000002
42
0.1169231898913651
10
137.83038253380053
20
28.911737241656155
42
-2.628112772475935
10
133.94347451100347
20
34.304534052015498
42
0.11692318990347055
10
125.70636629805361
20
39.406345180160798
10
71.6494247940512
20
57.425325681486932
42
0.00048279573239435084
10
71.610938736774472
20
57.43811308931005
42
-2.6281127721671278
10
65.04919652123597
20
58.502937262628834
42
0.00048279573325669072
10
65.008641707999999
20
58.502976422000003
10
34.065583212000007
20
58.50297642200001
10
34.065583212000007
20
-6.4970235779999985
10
44.065583212000007
20
-6.4970235780000003
10
44.065583212000007
20
-30.497023578000004
10
34.065583212000007
20
-30.497023578000004
10
34.065583212029125
20
-45.7552097468337
42
-0.020572763811069133
10
36.3963880944493
20
-46.262782043601248
42
-3.1660474504624161
10
41.816632118229876
20
-48.163940837816241
10
82.107177028352879
20
-63.832486072664054
42
0.04689851436298647
10
85.887988770816136
20
-64.908070948478823
42
-2.6298664517706416
10
92.530250146093636
20
-65.071306599110684
42
0.046898514363736064
10
96.359331596053593
20
-64.182737236160804
10
125.70636629815121
20
-54.400392335453596
42
0.19455063779034629
10
137.68816511505224
20
-44.183682843124217
42
-2.6281127726240423
10
139.7887361234101
20
-37.876709492091905
42
0.040661443145741633
0
LWPOLYLINE
5
102
100
AcDbEntity
8
0
100
AcDbPolyline
90
4
70
1
43
0.0
10
92.844757506000008
20
-41.742682500000001
10
106.74475750600001
20
-41.742682500000001
10
106.74475750600001
20
-55.642682500000006
10
92.844757506000008
20
-55.642682500000006
0
LWPOLYLINE
5
103
100
AcDbEntity
8
0
100
AcDbPolyline
90
4
70
1
43
0.0
10
99.70493478100002
20
-20.629227838999999
10
113.604934781
20
-20.629227838999999
10
113.604934781
20
-34.529227839000001
10
99.70493478100002
20
-34.529227839000001
0
LWPOLYLINE
5
104
100
AcDbEntity
8
0
100
AcDbPolyline
90
4
70
1
43
0.0
10
121.41981151800002
20
-16.013588301999999
10
135.31981151799999
20
-16.013588301999999
10
135.31981151799999
20
-29.913588302000001
10
121.41981151800002
20
-29.913588302000001
0
LWPOLYLINE
5
105
100
AcDbEntity
8
0
100
AcDbPolyline
90
4
70
1
43
0.0
10
114.55963424300002
20
-37.127042963999997
10
128.45963424300004
20
-37.127042963999997
10
128.45963424300004
20
-51.027042964000003
10
114.55963424300002
20
-51.027042964000003
0
LWPOLYLINE
5
106
100
AcDbEntity
8
0
100
AcDbPolyline
90
4
70
1
43
0.0
10
91.620983655000003
20
-31.439584997000001
10
77.720983654999998
20
-31.439584997000001
10
77.720983654999998
20
-17.539584996999999
10
91.620983655000003
20
-17.539584996999999
0
LWPOLYLINE
5
107
100
AcDbEntity
8
0
100
AcDbPolyline
90
4
70
1
43
0.0
10
43.115583211999997
20
53.97246509
10
57.015583212000003
20
53.97246509
10
57.015583212000003
20
40.072465090000009
10
43.115583211999997
20
40.072465090000009
0
LWPOLYLINE
5
108
100
AcDbEntity
8
0
100
AcDbPolyline
90
4
70
1
43
0.0
10
36.683405725
20
32.933760513999999
10
50.583405725000006
20
32.933760513999999
10
50.583405725000006
20
19.033760514000001
10
36.683405725
20
19.033760514000001
0
LWPOLYLINE
5
109
100
AcDbEntity
8
0
100
AcDbPolyline
90
4
70
1
43
0.0
10
58.119547093999998
20
37.882683696999997
10
72.019547094000004
20
37.882683696999997
10
72.019547094000004
20
23.982683696999999
10
58.119547093999998
20
23.982683696999999
0
LWPOLYLINE
5
110
100
AcDbEntity
8
0
100
AcDbPolyline
90
4
70
1
43
0.0
10
73.123510976000006
20
21.792902303000005
10
87.023510975999997
20
21.792902303000005
10
87.023510975999997
20
7.8929023029999996
10
73.123510976000006
20
7.8929023029999996
0
LWPOLYLINE
5
111
100
AcDbEntity
8
0
100
AcDbPolyline
90
4
70
1
43
0.0
10
51.687369607000008
20
16.843979121
10
65.587369606999999
20
16.843979121
10
65.587369606999999
20
2.9439791209999999
10
51.687369607000008
20
2.9439791209999999
0
LWPOLYLINE
5
112
100
AcDbEntity
8
0
100
AcDbPolyline
90
4
70
1
43
0.0
10
58.119547093999998
20
-7.1173163030000008
10
72.019547094000004
20
-7.1173163030000008
10
72.019547094000004
20
-21.017316303000001
10
58.119547093999998
20
-21.017316303000001
0
LWPOLYLINE
5
113
100
AcDbEntity
8
0
100
AcDbPolyline
90
4
70
1
43
0.0
10
51.259369819000007
20
-28.230770965000005
10
65.159369819000005
20
-28.230770965000005
10
65.159369819000005
20
-42.130770965000004
10
51.259369819000007
20
-42.130770965000004
0
LWPOLYLINE
5
114
100
AcDbEntity
8
0
100
AcDbPolyline
90
4
70
1
43
0.0
10
70.86080638
20
-38.653039659000001
10
84.760806380000005
20
-38.653039659000001
10
84.760806380000005
20
-52.553039659000007
10
70.86080638
20
-52.553039659000007
0
CIRCLE
5
115
100
AcDbEntity
8
0
100
AcDbCircle
10
135.85670035999999
20
-8.5759292400000007
30
0
40
3.0499999999999998
210
0
220
0
230
1
0
CIRCLE
5
116
100
AcDbEntity
8
0
100
AcDbCircle
10
135.85670035999999
20
-1.32592924
30
0
40
3.0499999999999998
210
0
220
0
230
1
0
CIRCLE
5
117
100
AcDbEntity
8
0
100
AcDbCircle
10
135.85670035999999
20
5.9240707600000011
30
0
40
3.0499999999999998
210
0
220
0
230
1
0
CIRCLE
5
118
100
AcDbEntity
8
0
100
AcDbCircle
10
135.85670035999999
20
13.174070760000001
30
0
40
3.0499999999999998
210
0
220
0
230
1
0
CIRCLE
5
119
100
AcDbEntity
8
0
100
AcDbCircle
10
135.85670035999999
20
20.424070759999999
30
0
40
3.0499999999999998
210
0
220
0
230
1
0
LWPOLYLINE
5
120
100
AcDbEntity
8
0
100
AcDbPolyline
90
4
70
1
43
0.0
10
50.583405725000006
20
19.033760514000001
10
50.583405725000006
20
32.933760513999999
10
36.683405725
20
32.933760513999999
10
36.683405725
20
19.033760514000001
0
LWPOLYLINE
5
121
100
AcDbEntity
8
0
100
AcDbPolyline
90
4
70
1
43
0.0
10
65.587369606999999
20
2.9439791209999999
10
65.587369606999999
20
16.843979121
10
51.687369607000008
20
16.843979121
10
51.687369607000008
20
2.9439791209999999
0
LWPOLYLINE
5
122
100
AcDbEntity
8
0
100
AcDbPolyline
90
4
70
1
43
0.0
10
87.023510975999997
20
7.8929023029999996
10
87.023510975999997
20
21.792902303000005
10
73.123510976000006
20
21.792902303000005
10
73.123510976000006
20
7.8929023029999996
0
LWPOLYLINE
5
123
100
AcDbEntity
8
0
100
AcDbPolyline
90
4
70
1
43
0.0
10
57.015583212000003
20
40.072465090000009
10
57.015583212000003
20
53.97246509
10
43.115583211999997
20
53.97246509
10
43.115583211999997
20
40.072465090000009
0
LWPOLYLINE
5
124
100
AcDbEntity
8
0
100
AcDbPolyline
90
4
70
1
43
0.0
10
72.019547094000004
20
-21.017316303000001
10
72.019547094000004
20
-7.1173163030000008
10
58.119547093999998
20
-7.1173163030000008
10
58.119547093999998
20
-21.017316303000001
0
LWPOLYLINE
5
125
100
AcDbEntity
8
0
100
AcDbPolyline
90
4
70
1
43
0.0
10
65.159369819000005
20
-42.130770965000004
10
65.159369819000005
20
-28.230770965000005
10
51.259369819000007
20
-28.230770965000005
10
51.259369819000007
20
-42.130770965000004
0
LWPOLYLINE
5
126
100
AcDbEntity
8
0
100
AcDbPolyline
90
4
70
1
43
0.0
10
84.760806380000005
20
-52.553039659000007
10
84.760806380000005
20
-38.653039659000001
10
70.86080638
20
-38.653039659000001
10
70.86080638
20
-52.553039659000007
0
LWPOLYLINE
5
127
100
AcDbEntity
8
0
100
AcDbPolyline
90
4
70
1
43
0.0
10
91.620983655000003
20
-31.439584997000001
10
91.620983655000003
20
-17.539584996999999
10
77.720983654999998
20
-17.539584996999999
10
77.720983654999998
20
-31.439584997000001
0
LWPOLYLINE
5
128
100
AcDbEntity
8
0
100
AcDbPolyline
90
4
70
1
43
0.0
10
106.74475750600001
20
-55.642682500000006
10
106.74475750600001
20
-41.742682500000001
10
92.844757506000008
20
-41.742682500000001
10
92.844757506000008
20
-55.642682500000006
0
LWPOLYLINE
5
129
100
AcDbEntity
8
0
100
AcDbPolyline
90
4
70
1
43
0.0
10
113.604934781
20
-34.529227839000001
10
113.604934781
20
-20.629227838999999
10
99.70493478100002
20
-20.629227838999999
10
99.70493478100002
20
-34.529227839000001
0
LWPOLYLINE
5
130
100
AcDbEntity
8
0
100
AcDbPolyline
90
4
70
1
43
0.0
10
128.45963424300004
20
-51.027042964000003
10
128.45963424300004
20
-37.127042963999997
10
114.55963424300002
20
-37.127042963999997
10
114.55963424300002
20
-51.027042964000003
0
LWPOLYLINE
5
131
100
AcDbEntity
8
0
100
AcDbPolyline
90
4
70
1
43
0.0
10
135.31981151799999
20
-29.913588302000001
10
135.31981151799999
20
-16.013588301999999
10
121.41981151800002
20
-16.013588301999999
10
121.41981151800002
20
-29.913588302000001
0
LWPOLYLINE
5
132
100
AcDbEntity
8
0
100
AcDbPolyline
90
28
70
1
43
0.0
10
18.065583212
20
-38.497023577999997
10
25.065583212
20
-38.497023577999997
10
30.086380501000001
20
-38.497023577999997
10
30.086380501000001
20
1.5029764219999999
10
25.065583212
20
1.5029764219999999
10
18.065583212
20
1.5029764219999997
10
18.065583212
20
11.502976422
10
25.065583212
20
11.502976422
10
30.086380501000001
20
11.502976422
10
30.086380501000001
20
51.50297642200001
10
25.065583212
20
51.50297642200001
10
18.065583212
20
51.50297642200001
10
18.065583212
20
60.502976422000003
42
-0.41421356237309503
10
20.065583212
20
62.502976422000003
10
25.065583212
20
62.502976422000003
10
65.008641707999999
20
62.502976422000003
42
-0.080611571664170781
10
72.914335857820959
20
61.220058873462847
10
126.97127736197096
20
43.201078372412844
42
-0.32282280606034819
10
144.06558321200004
20
19.483995921000005
10
144.06558321200004
20
-34.478043076999995
42
-0.32282280605860197
10
126.97127736212096
20
-58.195125528362851
10
97.624242660120956
20
-67.977470428362864
42
-0.17491218622417631
10
80.657391981910479
20
-67.560504765837365
10
38.126739736038616
20
-51.02080668578175
10
36.281835790999999
20
-50.248582990999999
10
34.065583211382339
20
-49.320923460699326
10
25.065583212
20
-49.320923461
10
18.065583212
20
-49.320923461
0
LWPOLYLINE
5
133
100
AcDbEntity
8
0
100
AcDbPolyline
90
4
70
1
43
0.0
10
72.019547094000004
20
37.882683696999997
10
58.119547093999998
20
37.882683696999997
10
58.119547093999998
20
23.982683696999999
10
72.019547094000004
20
23.982683696999999
0
ENDSEC
0
SECTION
2
OBJECTS
0
DICTIONARY
5
C
100
AcDbDictionary
3
ACAD_GROUP
350
D
3
ACAD_MLINESTYLE
350
17
0
DICTIONARY
5
D
100
AcDbDictionary
0
DICTIONARY
5
1A
330
C
100
AcDbDictionary
0
DICTIONARY
5
17
100
AcDbDictionary
0
ENDSEC
0
EOF
