0
SECTION
2
HEADER
9
$INSUNITS
70
4
9
$ACADVER
1
AC1014
9
$HANDSEED
5
FFFF
0
ENDSEC
0
SECTION
2
TABLES
0
TABLE
2
VPORT
5
8
100
AcDbSymbolTable
0
ENDTAB
0
TABLE
2
LTYPE
5
5
100
AcDbSymbolTable
0
LTYPE
5
14
100
AcDbSymbolTableRecord
100
AcDbLinetypeTableRecord
2
BYBLOCK
70
0
0
LTYPE
5
15
100
AcDbSymbolTableRecord
100
AcDbLinetypeTableRecord
2
BYLAYER
70
0
0
LTYPE
5
16
100
AcDbSymbolTableRecord
100
AcDbLinetypeTableRecord
2
DASHED
70
0
3
Dashed __ __ __ __ __ __ __ __ __ __ __ __ __ _
72
65
73
2
40
0.75
49
0.5
74
0
49
-0.25
74
0
0
ENDTAB
0
TABLE
2
LAYER
5
2
100
AcDbSymbolTable
70
3
0
LAYER
5
50
100
AcDbSymbolTableRecord
100
AcDbLayerTableRecord
2
1
70
0
62
7
6
DASHED
0
LAYER
5
51
100
AcDbSymbolTableRecord
100
AcDbLayerTableRecord
2
0
70
0
62
7
6
CONTINUOUS
0
ENDTAB
0
TABLE
2
STYLE
5
3
100
AcDbSymbolTable
70
1
0
STYLE
5
11
100
AcDbSymbolTableRecord
100
AcDbTextStyleTableRecord
2
STANDARD
70
0
0
ENDTAB
0
TABLE
2
VIEW
5
6
100
AcDbSymbolTable
70
0
0
ENDTAB
0
TABLE
2
UCS
5
7
100
AcDbSymbolTable
70
0
0
ENDTAB
0
TABLE
2
APPID
5
9
100
AcDbSymbolTable
70
2
0
APPID
5
12
100
AcDbSymbolTableRecord
100
AcDbRegAppTableRecord
2
ACAD
70
0
0
ENDTAB
0
TABLE
2
DIMSTYLE
5
A
100
AcDbSymbolTable
70
1
0
ENDTAB
0
TABLE
2
BLOCK_RECORD
5
1
100
AcDbSymbolTable
70
1
0
BLOCK_RECORD
5
1F
100
AcDbSymbolTableRecord
100
AcDbBlockTableRecord
2
*MODEL_SPACE
0
BLOCK_RECORD
5
1B
100
AcDbSymbolTableRecord
100
AcDbBlockTableRecord
2
*PAPER_SPACE
0
ENDTAB
0
ENDSEC
0
SECTION
2
BLOCKS
0
BLOCK
5
20
100
AcDbEntity
100
AcDbBlockBegin
2
*MODEL_SPACE
0
ENDBLK
5
21
100
AcDbEntity
100
AcDbBlockEnd
0
BLOCK
5
1C
100
AcDbEntity
100
AcDbBlockBegin
2
*PAPER_SPACE
0
ENDBLK
5
1D
100
AcDbEntity
100
AcDbBlockEnd
0
ENDSEC
0
SECTION
2
ENTITIES
0
POINT
5
100
100
AcDbEntity
8
0
100
AcDbPoint
10
-27.061156528891534
20
-43.523783094954602
30
0
0
LWPOLYLINE
5
101
100
AcDbEntity
8
0
100
AcDbPolyline
90
12
70
1
43
0.0
10
-67.874434668999996
20
44.182508186
10
-67.990371886999995
20
53.456760985000003
42
0.50476555375517784
10
-74.522487168987368
20
58.153612368960708
10
-102.61472991801867
20
49.107941032057958
42
0.32565067739157189
10
-113.01721215000001
20
34.829886879999997
10
-113.01721215000001
20
-0.31749181399999937
42
0.41421356237309509
10
-108.01721215000001
20
-5.3174918140000003
10
-69.632704048685653
20
-5.3174918139998546
42
-0.41195405191188794
10
-59.433008047000008
20
4.8037587529999994
10
-23.000000000000004
20
4.8037587530000003
10
-23.000000000000004
20
28.382508186000003
10
-51.875684717999995
20
28.382508186168049
42
-0.41055702309618014
0
CIRCLE
5
102
100
AcDbEntity
8
0
100
AcDbCircle
10
-75.489768982000001
20
0.84174078900000004
30
0
40
3.7071067810000002
210
0
220
0
230
1
0
CIRCLE
5
103
100
AcDbEntity
8
0
100
AcDbCircle
10
-86.739768982000015
20
47.891740789000004
30
0
40
3.7071067810000002
210
0
220
0
230
1
0
CIRCLE
5
104
100
AcDbEntity
8
0
100
AcDbCircle
10
-86.739768982000015
20
0.84174078900000004
30
0
40
3.7071067810000002
210
0
220
0
230
1
0
CIRCLE
5
105
100
AcDbEntity
8
0
100
AcDbCircle
10
-75.489768982000001
20
47.891740789000004
30
0
40
3.7071067810000002
210
0
220
0
230
1
0
LWPOLYLINE
5
106
100
AcDbEntity
8
0
100
AcDbPolyline
90
4
70
1
43
0.0
10
-58.584107992000007
20
47.805532943999999
10
-58.584107992000007
20
33.905532944000001
10
-44.684107992000001
20
33.905532944000001
10
-44.684107992000001
20
47.805532943999999
0
LWPOLYLINE
5
107
100
AcDbEntity
8
0
100
AcDbPolyline
90
4
70
1
43
0.0
10
-41.126955987000002
20
47.854612729999999
10
-27.226955987
20
47.854612729999999
10
-27.226955987
20
61.754612729999998
10
-41.126955987000002
20
61.754612729999998
0
LWPOLYLINE
5
108
100
AcDbEntity
8
0
100
AcDbPolyline
90
4
70
1
43
0.0
10
-66.655400443000005
20
-10.042561419
10
-80.555400443000011
20
-10.042561419
10
-80.555400443000011
20
-23.942561419
10
-66.655400443000005
20
-23.942561419
0
LWPOLYLINE
5
109
100
AcDbEntity
8
0
100
AcDbPolyline
90
4
70
1
43
0.0
10
-71.925586426999999
20
-30.578923546999999
10
-58.025586427
20
-30.578923546999999
10
-58.025586427
20
-44.478923547000008
10
-71.925586426999999
20
-44.478923547000008
0
LWPOLYLINE
5
110
100
AcDbEntity
8
0
100
AcDbPolyline
90
4
70
1
43
0.0
10
-47.053963881999998
20
-13.520292725000001
10
-60.953963882000004
20
-13.520292725000001
10
-60.953963882000004
20
0.37970727500000079
10
-47.053963881999998
20
0.37970727500000001
0
LWPOLYLINE
5
111
100
AcDbEntity
8
0
100
AcDbPolyline
90
4
70
1
43
0.0
10
-102.539351569
20
-13.132204261
10
-102.539351569
20
-27.032204261
10
-88.639351568999999
20
-27.032204261
10
-88.639351568999999
20
-13.132204261
0
LWPOLYLINE
5
112
100
AcDbEntity
8
0
100
AcDbPolyline
90
4
70
1
43
0.0
10
-124.254228306
20
-22.416564724000004
10
-110.354228306
20
-22.416564724000004
10
-110.354228306
20
-8.5165647240000002
10
-124.254228306
20
-8.5165647240000002
0
LWPOLYLINE
5
113
100
AcDbEntity
8
0
100
AcDbPolyline
90
28
70
1
43
0.0
10
-14.000000000000002
20
-41.82389988300001
10
-22.999999999000003
20
-41.82389988300001
10
-25.216252579375322
20
-42.751559413492444
10
-27.061156528891534
20
-43.523783094954602
10
-69.591808771008346
20
-60.063481188264305
42
-0.17491218621122101
10
-86.558659448045958
20
-60.480446850387835
10
-115.90569415012095
20
-50.69810195036284
42
-0.32282280605860231
10
-133
20
-26.981019499000002
10
-133.00000000000003
20
26.981019498999995
42
-0.32282280605860281
10
-115.90569415012098
20
50.69810195036284
10
-61.848752646120964
20
68.717082451362842
42
-0.080611571667352014
10
-53.943058496000006
20
70
10
-14.000000000000002
20
70
10
-9.0000000000000018
20
70.000000000000014
42
-0.41421356237309503
10
-7.0000000000000009
20
68
10
-7.0000000000000009
20
59
10
-14.000000000000002
20
59
10
-19.020797289000001
20
59
10
-19.020797289000001
20
19
10
-14.000000000000002
20
19
10
-7.0000000000000009
20
19
10
-7.0000000000000009
20
9
10
-14.000000000000002
20
9
10
-19.020797289000001
20
9
10
-19.020797289000001
20
-31
10
-14.000000000000002
20
-31
10
-7.0000000000000009
20
-31
10
-7.0000000000000009
20
-41.82389988300001
0
ENDSEC
0
SECTION
2
OBJECTS
0
DICTIONARY
5
C
100
AcDbDictionary
3
ACAD_GROUP
350
D
3
ACAD_MLINESTYLE
350
17
0
DICTIONARY
5
D
100
AcDbDictionary
0
DICTIONARY
5
1A
330
C
100
AcDbDictionary
0
DICTIONARY
5
17
100
AcDbDictionary
0
ENDSEC
0
EOF
